<svg width="85" height="96" viewBox="0 0 85 96" fill="none" xmlns="http://www.w3.org/2000/svg">
<path d="M82.5291 22.7224L44.098 0.534491C42.8639 -0.178164 41.3411 -0.178164 40.1071 0.534491L1.6779 22.7224C0.640491 23.3214 0 24.4291 0 25.6289V70.3711C0 71.5691 0.640491 72.6786 1.6779 73.2776L40.1089 95.4655C41.343 96.1782 42.8658 96.1782 44.0999 95.4655L82.5308 73.2776C83.5683 72.6786 84.2088 71.5708 84.2088 70.3711V25.6289C84.2088 24.431 83.5683 23.3214 82.5308 22.7224H82.5291ZM80.1151 27.4223L43.0154 91.6804C42.7647 92.1134 42.1026 91.9365 42.1026 91.4349V49.3595C42.1026 48.5187 41.6533 47.741 40.9244 47.3189L4.48703 26.2821C4.05402 26.0313 4.23083 25.3691 4.73239 25.3691H78.9315C79.9852 25.3691 80.6437 26.5112 80.1168 27.4242H80.1151V27.4223Z" fill="white"/>
</svg>
